<svg xmlns="http://www.w3.org/2000/svg" xmlns:xlink="http://www.w3.org/1999/xlink" width="500" zoomAndPan="magnify" viewBox="0 0 375 374.999991" height="500" preserveAspectRatio="xMidYMid meet" version="1.0"><rect x="-37.5" width="450" fill="#ffffff" y="-37.499999" height="449.999989" fill-opacity="1"/><rect x="-37.5" width="450" fill="#ffffff" y="-37.499999" height="449.999989" fill-opacity="1"/><rect x="-37.5" width="450" fill="#ffffff" y="-37.499999" height="449.999989" fill-opacity="1"/><rect x="-37.5" width="450" fill="#ffffff" y="-37.499999" height="449.999989" fill-opacity="1"/><path fill="#1a1a1a" d="M 109.214844 108.71875 L 109.214844 84.929688 C 109.214844 84.929688 110.15625 80.34375 113.257812 78.316406 C 116.363281 76.289062 153.652344 52.21875 155.179688 51.128906 C 156.710938 50.042969 160.410156 50.859375 161.667969 50.179688 C 162.617188 49.195312 162.203125 46.582031 164.101562 45.191406 L 201.140625 21.109375 C 202.671875 19.84375 205.699219 19.53125 207.09375 21.113281 L 246.023438 55.179688 C 247.265625 56.320312 246.179688 60.464844 247.148438 61.542969 C 248.234375 62.753906 252.886719 61.960938 254.140625 62.757812 L 293.070312 97.363281 C 294.605469 99.160156 294.105469 103.132812 295.234375 104.390625 C 296.941406 106.246094 301.097656 104.976562 303.347656 106.558594 L 345.523438 144.949219 C 346.792969 146.296875 347.109375 149.820312 346.066406 151.441406 L 296.453125 254.59375 L 265.523438 277.957031 C 264.925781 278.398438 263.148438 278.066406 262.511719 278.585938 C 262.09375 278.960938 262.699219 280.488281 262.070312 280.976562 L 243.386719 295.808594 L 248.21875 319.050781 C 248.335938 320.566406 247.84375 322.082031 247.105469 322.867188 L 208.714844 353.148438 C 206.078125 355.289062 203.140625 355.042969 201.238281 353.636719 L 161.082031 329.601562 C 158.792969 328.699219 158.929688 326.800781 157.730469 326.152344 C 156.289062 325.65625 155.101562 327.699219 153.785156 326.898438 L 114.476562 303.316406 C 112.832031 302.179688 113.550781 299.578125 111.394531 298.695312 C 109.113281 298.367188 108.808594 300.394531 106.320312 298.695312 L 79.472656 282.847656 C 78.511719 282.375 77.304688 281.050781 76.769531 279.605469 L 63.6875 241.226562 C 63.070312 239.84375 64.691406 237.996094 64.257812 236.734375 C 63.96875 235.539062 61.542969 234.5625 61.011719 232.878906 L 47.507812 189.328125 C 46.800781 187.503906 48.90625 184.785156 48.453125 183.089844 C 47.363281 180.804688 44.871094 181.84375 43.78125 179.558594 L 29.152344 132.699219 C 27.792969 129.769531 28.636719 127.1875 30.265625 126.023438 L 73.523438 98.984375 C 75.371094 98.03125 77.625 98.304688 79.472656 98.984375 L 104.886719 109.257812 C 107.144531 110.300781 109.128906 110.253906 109.214844 108.71875 Z M 109.214844 108.71875 " fill-opacity="1" fill-rule="evenodd"/><path fill="#4d4d4d" d="M 231.792969 110.109375 C 249.320312 125.941406 251.152344 129.730469 230.582031 111.445312 C 210.011719 93.160156 207.917969 88.742188 231.792969 110.109375 Z M 231.792969 110.109375 " fill-opacity="1" fill-rule="evenodd"/><path fill="#808080" d="M 158.414062 119.335938 C 158.414062 118.96875 158.371094 118.617188 158.285156 118.277344 C 158.199219 117.9375 158.074219 117.640625 157.917969 117.382812 C 157.757812 117.121094 157.574219 116.921875 157.363281 116.78125 C 157.15625 116.640625 156.941406 116.570312 156.714844 116.570312 C 156.488281 116.570312 156.269531 116.640625 156.0625 116.78125 C 155.855469 116.921875 155.671875 117.121094 155.511719 117.382812 C 155.351562 117.640625 155.230469 117.9375 155.144531 118.277344 C 155.054688 118.617188 155.011719 118.96875 155.011719 119.335938 C 155.011719 119.703125 155.054688 120.054688 155.144531 120.394531 C 155.230469 120.730469 155.351562 121.03125 155.511719 121.289062 C 155.671875 121.546875 155.855469 121.746094 156.0625 121.886719 C 156.269531 122.027344 156.488281 122.097656 156.714844 122.097656 C 156.941406 122.097656 157.15625 122.027344 157.363281 121.886719 C 157.574219 121.746094 157.757812 121.546875 157.917969 121.289062 C 158.074219 121.03125 158.199219 120.730469 158.285156 120.394531 C 158.371094 120.054688 158.414062 119.703125 158.414062 119.335938 " fill-opacity="1" fill-rule="evenodd"/><path fill="#999999" d="M 255.554688 130.210938 C 255.554688 129.84375 255.507812 129.492188 255.421875 129.15625 C 255.335938 128.816406 255.214844 128.515625 255.054688 128.257812 C 254.894531 128 254.710938 127.800781 254.503906 127.660156 C 254.292969 127.519531 254.078125 127.449219 253.851562 127.449219 C 253.625 127.449219 253.410156 127.519531 253.203125 127.660156 C 252.992188 127.800781 252.808594 128 252.648438 128.257812 C 252.488281 128.515625 252.367188 128.816406 252.28125 129.15625 C 252.195312 129.492188 252.152344 129.84375 252.152344 130.210938 C 252.152344 130.578125 252.195312 130.929688 252.28125 131.269531 C 252.367188 131.609375 252.488281 131.90625 252.648438 132.164062 C 252.808594 132.425781 252.992188 132.625 253.203125 132.765625 C 253.410156 132.90625 253.625 132.976562 253.851562 132.976562 C 254.078125 132.976562 254.292969 132.90625 254.503906 132.765625 C 254.710938 132.625 254.894531 132.425781 255.054688 132.164062 C 255.214844 131.90625 255.335938 131.609375 255.421875 131.269531 C 255.507812 130.929688 255.554688 130.578125 255.554688 130.210938 " fill-opacity="1" fill-rule="evenodd"/><path fill="#4d4d4d" d="M 283.1875 156.277344 C 298.738281 170.328125 300.363281 173.6875 282.109375 157.464844 C 263.855469 141.238281 262 137.316406 283.1875 156.277344 Z M 283.1875 156.277344 " fill-opacity="1" fill-rule="evenodd"/><path fill="#808080" d="M 307.148438 176.140625 C 307.148438 175.773438 307.105469 175.421875 307.019531 175.082031 C 306.933594 174.742188 306.808594 174.445312 306.648438 174.183594 C 306.492188 173.925781 306.304688 173.726562 306.097656 173.585938 C 305.890625 173.445312 305.671875 173.375 305.445312 173.375 C 305.222656 173.375 305.003906 173.445312 304.796875 173.585938 C 304.589844 173.726562 304.402344 173.925781 304.246094 174.183594 C 304.085938 174.445312 303.960938 174.742188 303.875 175.082031 C 303.789062 175.421875 303.746094 175.773438 303.746094 176.140625 C 303.746094 176.503906 303.789062 176.859375 303.875 177.195312 C 303.960938 177.535156 304.085938 177.835938 304.246094 178.09375 C 304.402344 178.351562 304.589844 178.550781 304.796875 178.691406 C 305.003906 178.832031 305.222656 178.902344 305.445312 178.902344 C 305.671875 178.902344 305.890625 178.832031 306.097656 178.691406 C 306.304688 178.550781 306.492188 178.351562 306.648438 178.09375 C 306.808594 177.835938 306.933594 177.535156 307.019531 177.195312 C 307.105469 176.859375 307.148438 176.503906 307.148438 176.140625 " fill-opacity="1" fill-rule="evenodd"/><path fill="#666666" d="M 258.105469 213.136719 C 258.105469 212.769531 258.0625 212.414062 257.976562 212.074219 C 257.890625 211.734375 257.769531 211.4375 257.609375 211.175781 C 257.449219 210.914062 257.265625 210.714844 257.054688 210.574219 C 256.847656 210.433594 256.628906 210.363281 256.402344 210.363281 C 256.175781 210.363281 255.960938 210.433594 255.75 210.574219 C 255.542969 210.714844 255.359375 210.914062 255.199219 211.175781 C 255.039062 211.4375 254.917969 211.734375 254.832031 212.074219 C 254.746094 212.414062 254.703125 212.769531 254.703125 213.136719 C 254.703125 213.503906 254.746094 213.859375 254.832031 214.199219 C 254.917969 214.539062 255.039062 214.835938 255.199219 215.097656 C 255.359375 215.359375 255.542969 215.558594 255.75 215.699219 C 255.960938 215.839844 256.175781 215.910156 256.402344 215.910156 C 256.628906 215.910156 256.847656 215.839844 257.054688 215.699219 C 257.265625 215.558594 257.449219 215.359375 257.609375 215.097656 C 257.769531 214.835938 257.890625 214.539062 257.976562 214.199219 C 258.0625 213.859375 258.105469 213.503906 258.105469 213.136719 " fill-opacity="1" fill-rule="evenodd"/><path fill="#666666" d="M 236.976562 194.125 C 252.527344 208.175781 254.152344 211.535156 235.898438 195.3125 C 217.644531 179.085938 215.789062 175.164062 236.976562 194.125 Z M 236.976562 194.125 " fill-opacity="1" fill-rule="evenodd"/><path fill="#808080" d="M 206.652344 84.878906 C 206.652344 84.511719 206.609375 84.160156 206.523438 83.820312 C 206.4375 83.480469 206.3125 83.179688 206.152344 82.921875 C 205.996094 82.660156 205.808594 82.460938 205.601562 82.320312 C 205.394531 82.179688 205.175781 82.109375 204.949219 82.109375 C 204.722656 82.109375 204.507812 82.179688 204.296875 82.320312 C 204.089844 82.460938 203.90625 82.660156 203.746094 82.921875 C 203.585938 83.179688 203.464844 83.480469 203.378906 83.820312 C 203.292969 84.160156 203.25 84.511719 203.25 84.878906 C 203.25 85.246094 203.292969 85.601562 203.378906 85.941406 C 203.464844 86.28125 203.585938 86.578125 203.746094 86.839844 C 203.90625 87.097656 204.089844 87.300781 204.296875 87.441406 C 204.507812 87.582031 204.722656 87.652344 204.949219 87.652344 C 205.175781 87.652344 205.394531 87.582031 205.601562 87.441406 C 205.808594 87.300781 205.996094 87.097656 206.152344 86.839844 C 206.3125 86.578125 206.4375 86.28125 206.523438 85.941406 C 206.609375 85.601562 206.652344 85.246094 206.652344 84.878906 " fill-opacity="1" fill-rule="evenodd"/><path fill="#333333" d="M 183.648438 65.671875 C 199.199219 79.722656 200.828125 83.082031 182.574219 66.859375 C 164.320312 50.632812 162.460938 46.714844 183.648438 65.671875 Z M 183.648438 65.671875 " fill-opacity="1" fill-rule="evenodd"/><path fill="#333333" d="M 136.179688 101.65625 C 151.730469 115.707031 153.355469 119.066406 135.101562 102.84375 C 116.847656 86.617188 114.992188 82.699219 136.179688 101.65625 Z M 136.179688 101.65625 " fill-opacity="1" fill-rule="evenodd"/><path fill="#808080" d="M 163.3125 185.558594 C 163.3125 185.191406 163.246094 184.839844 163.109375 184.5 C 162.972656 184.164062 162.78125 183.863281 162.53125 183.605469 C 162.28125 183.347656 161.992188 183.144531 161.664062 183.007812 C 161.335938 182.867188 160.996094 182.796875 160.640625 182.796875 C 160.289062 182.796875 159.945312 182.867188 159.621094 183.007812 C 159.292969 183.144531 159.003906 183.347656 158.753906 183.605469 C 158.503906 183.863281 158.308594 184.164062 158.175781 184.5 C 158.039062 184.839844 157.96875 185.191406 157.96875 185.558594 C 157.96875 185.925781 158.039062 186.277344 158.175781 186.617188 C 158.308594 186.957031 158.503906 187.253906 158.753906 187.511719 C 159.003906 187.773438 159.292969 187.972656 159.621094 188.113281 C 159.945312 188.253906 160.289062 188.324219 160.640625 188.324219 C 160.996094 188.324219 161.335938 188.253906 161.664062 188.113281 C 161.992188 187.972656 162.28125 187.773438 162.53125 187.511719 C 162.78125 187.253906 162.972656 186.957031 163.109375 186.617188 C 163.246094 186.277344 163.3125 185.925781 163.3125 185.558594 " fill-opacity="1" fill-rule="evenodd"/><path fill="#808080" d="M 114.261719 164 C 114.261719 163.632812 114.21875 163.28125 114.132812 162.941406 C 114.046875 162.605469 113.921875 162.304688 113.761719 162.046875 C 113.605469 161.785156 113.421875 161.585938 113.210938 161.445312 C 113.003906 161.308594 112.785156 161.238281 112.5625 161.238281 C 112.335938 161.238281 112.117188 161.308594 111.910156 161.445312 C 111.703125 161.585938 111.519531 161.785156 111.359375 162.046875 C 111.199219 162.304688 111.074219 162.605469 110.988281 162.941406 C 110.902344 163.28125 110.859375 163.632812 110.859375 164 C 110.859375 164.367188 110.902344 164.71875 110.988281 165.058594 C 111.074219 165.394531 111.199219 165.695312 111.359375 165.953125 C 111.519531 166.214844 111.703125 166.414062 111.910156 166.554688 C 112.117188 166.695312 112.335938 166.761719 112.5625 166.761719 C 112.785156 166.761719 113.003906 166.695312 113.210938 166.554688 C 113.421875 166.414062 113.605469 166.214844 113.761719 165.953125 C 113.921875 165.695312 114.046875 165.394531 114.132812 165.058594 C 114.21875 164.71875 114.261719 164.367188 114.261719 164 " fill-opacity="1" fill-rule="evenodd"/><path fill="#808080" d="M 69.855469 145.144531 C 69.855469 144.875 69.8125 144.617188 69.726562 144.367188 C 69.640625 144.121094 69.515625 143.902344 69.355469 143.710938 C 69.195312 143.519531 69.011719 143.375 68.804688 143.269531 C 68.597656 143.167969 68.378906 143.117188 68.152344 143.117188 C 67.929688 143.117188 67.710938 143.167969 67.503906 143.269531 C 67.292969 143.375 67.109375 143.519531 66.949219 143.710938 C 66.792969 143.902344 66.667969 144.121094 66.582031 144.367188 C 66.496094 144.617188 66.453125 144.875 66.453125 145.144531 C 66.453125 145.414062 66.496094 145.675781 66.582031 145.921875 C 66.667969 146.171875 66.792969 146.390625 66.949219 146.582031 C 67.109375 146.773438 67.292969 146.917969 67.503906 147.023438 C 67.710938 147.125 67.929688 147.175781 68.152344 147.175781 C 68.378906 147.175781 68.597656 147.125 68.804688 147.023438 C 69.011719 146.917969 69.195312 146.773438 69.355469 146.582031 C 69.515625 146.390625 69.640625 146.171875 69.726562 145.921875 C 69.8125 145.675781 69.855469 145.414062 69.855469 145.144531 " fill-opacity="1" fill-rule="evenodd"/><path fill="#666666" d="M 87.464844 203.339844 C 87.464844 203.070312 87.421875 202.808594 87.335938 202.5625 C 87.25 202.3125 87.125 202.09375 86.964844 201.902344 C 86.804688 201.710938 86.621094 201.566406 86.414062 201.460938 C 86.207031 201.359375 85.988281 201.308594 85.761719 201.308594 C 85.539062 201.308594 85.320312 201.359375 85.113281 201.460938 C 84.902344 201.566406 84.71875 201.710938 84.558594 201.902344 C 84.402344 202.09375 84.277344 202.3125 84.191406 202.5625 C 84.105469 202.808594 84.0625 203.070312 84.0625 203.339844 C 84.0625 203.605469 84.105469 203.867188 84.191406 204.113281 C 84.277344 204.363281 84.402344 204.582031 84.558594 204.773438 C 84.71875 204.964844 84.902344 205.109375 85.113281 205.214844 C 85.320312 205.316406 85.539062 205.367188 85.761719 205.367188 C 85.988281 205.367188 86.207031 205.316406 86.414062 205.214844 C 86.621094 205.109375 86.804688 204.964844 86.964844 204.773438 C 87.125 204.582031 87.25 204.363281 87.335938 204.113281 C 87.421875 203.867188 87.464844 203.605469 87.464844 203.339844 " fill-opacity="1" fill-rule="evenodd"/><path fill="#666666" d="M 178.03125 245.121094 C 178.035156 244.816406 177.980469 244.523438 177.867188 244.242188 C 177.757812 243.960938 177.597656 243.710938 177.390625 243.496094 C 177.183594 243.28125 176.941406 243.113281 176.671875 242.996094 C 176.398438 242.878906 176.117188 242.820312 175.824219 242.820312 C 175.53125 242.820312 175.246094 242.878906 174.976562 242.996094 C 174.703125 243.113281 174.464844 243.28125 174.257812 243.496094 C 174.050781 243.710938 173.890625 243.960938 173.777344 244.242188 C 173.667969 244.523438 173.613281 244.816406 173.613281 245.121094 C 173.613281 245.421875 173.667969 245.714844 173.777344 245.996094 C 173.890625 246.28125 174.050781 246.527344 174.257812 246.742188 C 174.464844 246.960938 174.703125 247.125 174.976562 247.242188 C 175.246094 247.359375 175.53125 247.417969 175.824219 247.417969 C 176.117188 247.417969 176.398438 247.359375 176.671875 247.242188 C 176.941406 247.125 177.183594 246.960938 177.390625 246.742188 C 177.597656 246.527344 177.757812 246.28125 177.867188 245.996094 C 177.980469 245.714844 178.035156 245.421875 178.03125 245.121094 " fill-opacity="1" fill-rule="evenodd"/><path fill="#4d4d4d" d="M 194.53125 301.597656 C 194.53125 301.296875 194.476562 301.003906 194.367188 300.722656 C 194.253906 300.441406 194.09375 300.191406 193.886719 299.976562 C 193.679688 299.761719 193.441406 299.59375 193.167969 299.476562 C 192.898438 299.363281 192.617188 299.304688 192.320312 299.304688 C 192.027344 299.304688 191.746094 299.363281 191.472656 299.476562 C 191.203125 299.59375 190.964844 299.761719 190.757812 299.976562 C 190.546875 300.191406 190.390625 300.441406 190.277344 300.722656 C 190.167969 301.003906 190.109375 301.296875 190.113281 301.597656 C 190.109375 301.902344 190.167969 302.195312 190.277344 302.476562 C 190.390625 302.757812 190.546875 303.007812 190.757812 303.222656 C 190.964844 303.4375 191.203125 303.605469 191.472656 303.722656 C 191.746094 303.835938 192.027344 303.894531 192.320312 303.894531 C 192.617188 303.894531 192.898438 303.835938 193.167969 303.722656 C 193.441406 303.605469 193.679688 303.4375 193.886719 303.222656 C 194.09375 303.007812 194.253906 302.757812 194.367188 302.476562 C 194.476562 302.195312 194.53125 301.902344 194.53125 301.597656 " fill-opacity="1" fill-rule="evenodd"/><path fill="#4d4d4d" d="M 146.671875 279.90625 C 146.671875 279.601562 146.617188 279.308594 146.503906 279.027344 C 146.394531 278.746094 146.234375 278.496094 146.027344 278.28125 C 145.820312 278.066406 145.582031 277.902344 145.308594 277.785156 C 145.039062 277.667969 144.753906 277.609375 144.460938 277.609375 C 144.167969 277.609375 143.882812 277.667969 143.613281 277.785156 C 143.34375 277.902344 143.101562 278.066406 142.894531 278.28125 C 142.6875 278.496094 142.527344 278.746094 142.417969 279.027344 C 142.304688 279.308594 142.25 279.601562 142.253906 279.90625 C 142.25 280.210938 142.304688 280.503906 142.417969 280.785156 C 142.527344 281.066406 142.6875 281.3125 142.894531 281.527344 C 143.101562 281.742188 143.34375 281.910156 143.613281 282.027344 C 143.882812 282.144531 144.167969 282.203125 144.460938 282.203125 C 144.753906 282.203125 145.039062 282.144531 145.308594 282.027344 C 145.582031 281.910156 145.820312 281.742188 146.027344 281.527344 C 146.234375 281.3125 146.394531 281.066406 146.503906 280.785156 C 146.617188 280.503906 146.671875 280.210938 146.671875 279.90625 " fill-opacity="1" fill-rule="evenodd"/><path fill="#333333" d="M 102.421875 257.113281 C 102.421875 256.921875 102.386719 256.734375 102.316406 256.558594 C 102.246094 256.378906 102.148438 256.222656 102.015625 256.085938 C 101.882812 255.949219 101.734375 255.84375 101.5625 255.769531 C 101.390625 255.695312 101.210938 255.660156 101.027344 255.660156 C 100.839844 255.660156 100.660156 255.695312 100.488281 255.769531 C 100.316406 255.84375 100.167969 255.949219 100.035156 256.085938 C 99.90625 256.222656 99.804688 256.378906 99.734375 256.558594 C 99.664062 256.734375 99.628906 256.921875 99.628906 257.113281 C 99.628906 257.304688 99.664062 257.492188 99.734375 257.667969 C 99.804688 257.847656 99.90625 258.003906 100.035156 258.140625 C 100.167969 258.277344 100.316406 258.382812 100.488281 258.457031 C 100.660156 258.527344 100.839844 258.566406 101.027344 258.566406 C 101.210938 258.566406 101.390625 258.527344 101.5625 258.457031 C 101.734375 258.382812 101.882812 258.277344 102.015625 258.140625 C 102.148438 258.003906 102.246094 257.847656 102.316406 257.667969 C 102.386719 257.492188 102.421875 257.304688 102.421875 257.113281 " fill-opacity="1" fill-rule="evenodd"/><path fill="#666666" d="M 131.496094 224.386719 C 131.496094 224.117188 131.453125 223.855469 131.367188 223.609375 C 131.28125 223.359375 131.160156 223.140625 131 222.949219 C 130.839844 222.757812 130.65625 222.609375 130.449219 222.507812 C 130.238281 222.402344 130.023438 222.351562 129.796875 222.351562 C 129.570312 222.351562 129.351562 222.402344 129.144531 222.507812 C 128.9375 222.609375 128.75 222.757812 128.59375 222.949219 C 128.433594 223.140625 128.308594 223.359375 128.222656 223.609375 C 128.136719 223.855469 128.09375 224.117188 128.09375 224.386719 C 128.09375 224.65625 128.136719 224.914062 128.222656 225.164062 C 128.308594 225.414062 128.433594 225.632812 128.59375 225.824219 C 128.75 226.015625 128.9375 226.164062 129.144531 226.265625 C 129.351562 226.367188 129.570312 226.421875 129.796875 226.421875 C 130.023438 226.421875 130.238281 226.367188 130.449219 226.265625 C 130.65625 226.164062 130.839844 226.015625 131 225.824219 C 131.160156 225.632812 131.28125 225.414062 131.367188 225.164062 C 131.453125 224.914062 131.496094 224.65625 131.496094 224.386719 " fill-opacity="1" fill-rule="evenodd"/><path fill="#666666" d="M 138.664062 174.488281 C 154.003906 180.976562 156.101562 183.074219 138.164062 175.660156 C 120.222656 168.242188 117.804688 165.785156 138.664062 174.488281 Z M 138.664062 174.488281 " fill-opacity="1" fill-rule="evenodd"/><path fill="#666666" d="M 91.445312 155.34375 C 106.789062 161.832031 108.886719 163.929688 90.945312 156.515625 C 73.003906 149.101562 70.589844 146.640625 91.445312 155.34375 Z M 91.445312 155.34375 " fill-opacity="1" fill-rule="evenodd"/><path fill="#666666" d="M 49.617188 136.996094 C 62.214844 142.324219 63.933594 144.046875 49.207031 137.957031 C 34.476562 131.871094 32.492188 129.851562 49.617188 136.996094 Z M 49.617188 136.996094 " fill-opacity="1" fill-rule="evenodd"/><path fill="#ffff25" d="M 121.164062 76.621094 L 156.160156 54.4375 C 157.660156 53.488281 159.742188 53.625 161.089844 54.8125 L 195.703125 85.355469 C 197.046875 86.542969 196.890625 88.550781 195.4375 89.5625 L 160.953125 113.535156 C 159.5 114.542969 157.34375 114.375 156.027344 113.160156 L 120.898438 80.832031 C 119.578125 79.613281 119.664062 77.574219 121.164062 76.621094 Z M 121.164062 76.621094 " fill-opacity="1" fill-rule="evenodd"/><path fill="#2a4bb7" d="M 169.640625 45.289062 L 201.867188 24.023438 C 203.253906 23.109375 205.222656 23.261719 206.476562 24.375 L 239.882812 53.96875 C 241.136719 55.082031 241.007812 56.984375 239.632812 57.90625 L 206.863281 79.820312 C 205.488281 80.738281 203.484375 80.609375 202.253906 79.472656 L 169.390625 49.226562 C 168.15625 48.089844 168.253906 46.203125 169.640625 45.289062 Z M 169.640625 45.289062 " fill-opacity="1" fill-rule="evenodd"/><path fill="#f03031" d="M 218.386719 88.933594 L 250.105469 67.414062 C 251.480469 66.480469 253.449219 66.660156 254.714844 67.761719 L 289.394531 98.125 C 290.65625 99.226562 290.488281 101.09375 289.144531 102.058594 L 257.90625 124.484375 C 256.5625 125.445312 254.546875 125.25 253.296875 124.136719 L 218.136719 92.871094 C 216.882812 91.753906 217.011719 89.867188 218.386719 88.933594 Z M 218.386719 88.933594 " fill-opacity="1" fill-rule="evenodd"/><path fill="#2ac44b" d="M 266.113281 132.832031 L 297.832031 109.269531 C 299.164062 108.277344 301.203125 108.488281 302.441406 109.617188 L 339.925781 143.808594 C 341.164062 144.9375 340.996094 146.753906 339.679688 147.746094 L 309.203125 170.679688 C 307.890625 171.671875 305.859375 171.429688 304.59375 170.332031 L 265.863281 136.765625 C 264.601562 135.671875 264.777344 133.820312 266.113281 132.832031 Z M 266.113281 132.832031 " fill-opacity="1" fill-rule="evenodd"/><path fill="#2a4bb7" d="M 169.128906 121.855469 L 203.910156 97.019531 C 205.261719 96.054688 207.257812 96.265625 208.519531 97.367188 L 245.496094 129.769531 C 246.757812 130.875 246.550781 132.695312 245.25 133.707031 L 219.621094 153.582031 C 218.324219 154.589844 215.96875 154.605469 215.011719 153.234375 C 211.992188 148.894531 209.191406 146.21875 205.179688 144.8125 L 177.707031 135.1875 L 168.882812 125.792969 C 167.734375 124.574219 167.777344 122.824219 169.128906 121.859375 Z M 169.128906 121.855469 " fill-opacity="1" fill-rule="evenodd"/><path fill="#ffff25" d="M 218.3125 168.472656 L 253.308594 142.460938 C 254.734375 141.402344 256.882812 141.65625 258.234375 142.832031 L 296.167969 175.929688 C 297.519531 177.109375 297.289062 179.042969 295.902344 180.136719 L 261.671875 207.171875 C 260.289062 208.265625 258.089844 207.984375 256.746094 206.796875 L 218.046875 172.683594 C 216.703125 171.496094 216.886719 169.53125 218.3125 168.472656 Z M 218.3125 168.472656 " fill-opacity="1" fill-rule="evenodd"/><path fill="#284299" d="M 298.199219 190.742188 L 286.25 217.324219 C 285.839844 218.230469 285.464844 219.007812 284.554688 219.746094 L 252.875 245.449219 C 251.960938 246.191406 250.203125 245.742188 250.464844 244.839844 L 256.992188 222.355469 C 257.253906 221.453125 257.769531 220.667969 258.6875 219.929688 L 295.792969 190.132812 C 296.710938 189.394531 298.605469 189.835938 298.199219 190.742188 Z M 298.199219 190.742188 " fill-opacity="1" fill-rule="evenodd"/><path fill="#b3b3b3" d="M 342.351562 156.796875 L 328.871094 183.632812 C 328.417969 184.535156 328.101562 185.324219 327.175781 186.058594 L 297.28125 209.714844 C 296.355469 210.449219 294.480469 210.003906 294.871094 209.105469 L 306.503906 182.539062 C 306.894531 181.640625 307.253906 180.828125 308.199219 180.113281 L 339.945312 156.1875 C 340.890625 155.472656 342.804688 155.894531 342.351562 156.796875 Z M 342.351562 156.796875 " fill-opacity="1" fill-rule="evenodd"/><path fill="#b3b3b3" d="M 324.230469 194.570312 L 310.746094 222.175781 C 310.308594 223.074219 310.019531 223.898438 309.050781 224.597656 L 282.988281 243.40625 C 282.019531 244.105469 280.191406 243.695312 280.582031 242.796875 L 290.167969 220.566406 C 290.554688 219.667969 290.949219 218.882812 291.863281 218.144531 L 321.824219 193.960938 C 322.738281 193.222656 324.671875 193.667969 324.230469 194.570312 Z M 324.230469 194.570312 " fill-opacity="1" fill-rule="evenodd"/><path fill="#1d8a35" d="M 282.886719 227.496094 L 271.191406 251.523438 C 270.753906 252.425781 270.355469 253.171875 269.496094 253.949219 L 244.53125 273.9375 C 243.675781 274.714844 241.878906 274.226562 242.125 273.328125 L 247.546875 254.511719 C 247.804688 253.613281 248.328125 252.824219 249.242188 252.089844 L 280.480469 226.886719 C 281.394531 226.148438 283.328125 226.59375 282.886719 227.496094 Z M 282.886719 227.496094 " fill-opacity="1" fill-rule="evenodd"/><path fill="#b34322" d="M 305.867188 231.933594 L 295.027344 253.125 C 294.640625 253.882812 294.40625 254.574219 293.597656 255.167969 L 269.617188 272.785156 C 268.808594 273.378906 267.25 273.03125 267.589844 272.273438 L 276.683594 252.03125 C 277.019531 251.277344 277.296875 250.578125 278.109375 249.992188 L 303.839844 231.421875 C 304.652344 230.835938 306.253906 231.175781 305.867188 231.933594 Z M 305.867188 231.933594 " fill-opacity="1" fill-rule="evenodd"/><path fill="#b3b31a" d="M 267.339844 261 L 260.140625 279.785156 C 259.910156 280.382812 259.621094 280.894531 259.019531 281.386719 L 244.554688 292.804688 C 243.953125 293.296875 243.070312 292.949219 242.960938 292.402344 L 240.691406 280.910156 C 240.585938 280.363281 240.929688 280.078125 241.53125 279.589844 L 265.75 260.601562 C 266.359375 260.121094 267.609375 260.402344 267.339844 261 Z M 267.339844 261 " fill-opacity="1" fill-rule="evenodd"/><path fill="#666666" d="M 250.808594 235.910156 C 246.695312 250.136719 244.957031 252.238281 249.597656 235.625 C 254.238281 219.015625 256.28125 216.589844 250.808594 235.910156 Z M 250.808594 235.910156 " fill-opacity="1" fill-rule="evenodd"/><path fill="#ffff25" d="M 181.65625 237.097656 L 217.867188 210.378906 C 219.292969 209.324219 220.324219 207.660156 219.960938 205.90625 L 210.59375 161.300781 C 210.226562 159.546875 208.4375 158.792969 206.800781 159.464844 L 168.273438 187.019531 C 166.84375 188.042969 165.804688 189.742188 166.175781 191.492188 L 177.859375 235.261719 C 178.316406 236.992188 180.226562 238.152344 181.65625 237.097656 Z M 181.65625 237.097656 " fill-opacity="1" fill-rule="evenodd"/><path fill="#2ac44b" d="M 197.34375 294.675781 L 231.75 269.183594 C 233.175781 268.125 234.210938 266.464844 233.847656 264.707031 L 223.925781 223.089844 C 223.511719 221.347656 221.769531 220.582031 220.132812 221.253906 L 184.8125 246.417969 C 183.386719 247.4375 182.34375 249.140625 182.71875 250.894531 L 193.546875 292.839844 C 193.996094 294.570312 195.914062 295.734375 197.34375 294.675781 Z M 197.34375 294.675781 " fill-opacity="1" fill-rule="evenodd"/><path fill="#ffff25" d="M 211.792969 348.691406 L 244.332031 323.03125 C 245.582031 322.046875 246.523438 320.578125 246.203125 318.992188 L 236.664062 278.511719 C 236.363281 276.925781 234.742188 276.25 233.28125 276.855469 L 199.210938 302.164062 C 197.953125 303.097656 197.011719 304.617188 197.34375 306.199219 L 208.410156 347.03125 C 208.832031 348.589844 210.546875 349.675781 211.792969 348.691406 Z M 211.792969 348.691406 " fill-opacity="1" fill-rule="evenodd"/><path fill="#2a4bb7" d="M 202.378906 150.644531 L 163.386719 178.09375 C 162.097656 179.003906 160.011719 179.300781 158.351562 178.722656 L 122.300781 163.347656 C 120.71875 162.671875 120.367188 161.382812 121.472656 160.371094 L 158.105469 134.519531 C 159.382812 133.621094 161.488281 133.308594 163.140625 133.890625 L 201.550781 147.667969 C 203.199219 148.257812 203.667969 149.734375 202.378906 150.644531 Z M 202.378906 150.644531 " fill-opacity="1" fill-rule="evenodd"/><path fill="#f03031" d="M 151.375 131.546875 L 114.574219 157.171875 C 113.355469 158.023438 111.390625 158.300781 109.820312 157.761719 L 75.792969 143.40625 C 74.300781 142.773438 73.96875 141.570312 75.011719 140.625 L 109.589844 116.492188 C 110.796875 115.648438 112.78125 115.359375 114.34375 115.90625 L 150.59375 128.765625 C 152.148438 129.316406 152.59375 130.695312 151.378906 131.546875 Z M 151.375 131.546875 " fill-opacity="1" fill-rule="evenodd"/><path fill="#ffff25" d="M 102.847656 113.789062 L 68.105469 137.535156 C 66.988281 138.300781 65.207031 138.558594 63.777344 138.070312 L 36.875 127.039062 C 35.503906 126.476562 35.214844 125.367188 36.164062 124.507812 L 71.328125 101.714844 C 72.464844 100.976562 74.234375 100.683594 75.65625 101.179688 L 102.132812 111.257812 C 103.527344 111.789062 103.964844 113.023438 102.847656 113.789062 Z M 102.847656 113.789062 " fill-opacity="1" fill-rule="evenodd"/><path fill="#cccccc" d="M 120.808594 173.855469 L 154.28125 187.792969 C 155.554688 188.324219 156.777344 189.984375 157.175781 191.746094 L 167.851562 234.65625 C 168.292969 236.417969 167.398438 237.46875 166.140625 237.113281 L 133.863281 221.578125 C 132.609375 220.972656 131.359375 219.386719 130.96875 217.625 L 119.097656 176.316406 C 118.59375 174.5625 119.535156 173.296875 120.808594 173.855469 Z M 120.808594 173.855469 " fill-opacity="1" fill-rule="evenodd"/><path fill="#c02627" d="M 139.90625 234.484375 L 170.003906 248.960938 C 171.273438 249.574219 172.5 251.152344 172.898438 252.914062 L 183.828125 292.902344 C 184.308594 294.660156 183.375 295.714844 182.117188 295.359375 L 150.882812 280.238281 C 149.625 279.628906 148.378906 278.046875 147.988281 276.285156 L 138.191406 236.941406 C 137.753906 235.183594 138.632812 233.921875 139.90625 234.484375 Z M 139.90625 234.484375 " fill-opacity="1" fill-rule="evenodd"/><path fill="#2a4bb7" d="M 153.882812 288.667969 L 185.519531 304.160156 C 186.667969 304.722656 187.777344 306.136719 188.136719 307.730469 L 198.246094 347.195312 C 198.652344 348.785156 197.835938 349.738281 196.699219 349.417969 L 164.660156 329.839844 C 163.535156 329.152344 162.394531 327.859375 162.042969 326.269531 L 152.335938 290.890625 C 151.902344 289.304688 152.734375 288.160156 153.882812 288.667969 Z M 153.882812 288.667969 " fill-opacity="1" fill-rule="evenodd"/><path fill="#2a4bb7" d="M 76.121094 155.109375 L 106.613281 168.175781 C 107.753906 168.664062 108.847656 170.136719 109.203125 171.714844 L 120.945312 212.675781 C 121.394531 214.246094 120.535156 215.191406 119.410156 214.875 L 88.800781 200.058594 C 87.675781 199.511719 86.558594 198.097656 86.207031 196.519531 L 74.589844 157.308594 C 74.125 155.742188 74.984375 154.605469 76.121094 155.109375 Z M 76.121094 155.109375 " fill-opacity="1" fill-rule="evenodd"/><path fill="#229d3c" d="M 34.601562 137.421875 L 62.988281 149.441406 C 64.027344 149.878906 65.027344 151.226562 65.351562 152.667969 L 77.023438 192.570312 C 77.445312 194.003906 76.652344 194.867188 75.625 194.578125 L 47.703125 180.695312 C 46.683594 180.1875 45.660156 178.90625 45.339844 177.46875 L 33.203125 139.429688 C 32.75 138.007812 33.5625 136.964844 34.601562 137.421875 Z M 34.601562 137.421875 " fill-opacity="1" fill-rule="evenodd"/><path fill="#c02627" d="M 93.089844 211.835938 L 123.605469 226.894531 C 124.804688 227.484375 125.960938 228.960938 126.339844 230.625 L 136.8125 268.730469 C 137.269531 270.390625 136.382812 271.386719 135.195312 271.050781 L 104.574219 255.675781 C 103.390625 255.078125 102.210938 253.609375 101.84375 251.945312 L 91.472656 214.15625 C 91.019531 212.5 91.890625 211.308594 93.089844 211.835938 Z M 93.089844 211.835938 " fill-opacity="1" fill-rule="evenodd"/><path fill="#2a4bb7" d="M 52.738281 192.058594 L 79.476562 205.042969 C 80.675781 205.625 81.832031 207.109375 82.207031 208.773438 L 92.546875 246.226562 C 93.003906 247.882812 92.113281 248.878906 90.929688 248.546875 L 65.351562 235.429688 C 64.167969 234.824219 62.988281 233.363281 62.617188 231.699219 L 51.117188 194.378906 C 50.613281 192.730469 51.535156 191.527344 52.738281 192.058594 Z M 52.738281 192.058594 " fill-opacity="1" fill-rule="evenodd"/><path fill="#cccccc" d="M 109.074219 266.613281 L 139.136719 281.246094 C 140.304688 281.816406 141.429688 283.257812 141.796875 284.878906 L 152.386719 321.511719 C 152.851562 323.125 151.964844 324.097656 150.8125 323.769531 L 119.253906 304.703125 C 118.109375 304.011719 116.953125 302.691406 116.59375 301.070312 L 107.5 268.871094 C 107.042969 267.261719 107.902344 266.097656 109.074219 266.613281 Z M 109.074219 266.613281 " fill-opacity="1" fill-rule="evenodd"/><path fill="#ffff25" d="M 69.566406 246.667969 L 94.714844 258.902344 C 95.917969 259.488281 97.074219 260.96875 97.449219 262.632812 L 106.195312 293.914062 C 106.660156 295.570312 105.765625 296.570312 104.582031 296.234375 L 80.875 282.089844 C 79.699219 281.390625 78.507812 280.023438 78.140625 278.359375 L 67.949219 248.988281 C 67.382812 247.351562 68.367188 246.136719 69.566406 246.667969 Z M 69.566406 246.667969 " fill-opacity="1" fill-rule="evenodd"/><path fill="#666666" d="M 184.207031 170.621094 C 168.71875 181.109375 165.460938 181.804688 183.40625 169.433594 C 201.355469 157.066406 205.144531 156.292969 184.207031 170.621094 Z M 184.207031 170.621094 " fill-opacity="1" fill-rule="evenodd"/></svg>